<?xml version="1.0" standalone="no"?><!DOCTYPE svg PUBLIC "-//W3C//DTD SVG 1.1//EN" "http://www.w3.org/Graphics/SVG/1.1/DTD/svg11.dtd"><svg t="1588908622801" class="icon" viewBox="0 0 1024 1024" version="1.1" xmlns="http://www.w3.org/2000/svg" p-id="1214" xmlns:xlink="http://www.w3.org/1999/xlink" width="200" height="200"><defs><style type="text/css"></style></defs><path d="M506.59 848.42c-89.69 0.37-176.06-33.92-241.09-95.69-14.97-14.25-15.55-37.93-1.31-52.89 14.24-14.97 37.92-15.55 52.89-1.3a273.641 273.641 0 0 0 189.51 74.76c26.29 0.04 52.47-3.61 77.75-10.84 20.12-4.62 40.18 7.95 44.79 28.07 4.27 18.62-6.18 37.46-24.23 43.69a356.352 356.352 0 0 1-98.31 14.2z m341.64-288.19c2.3-15.97 3.42-32.09 3.36-48.22-2.67-188.19-157.18-338.7-345.38-336.41-131.85-0.31-252.55 73.94-311.74 191.75-9.08 18.58-1.38 41 17.2 50.08 18.58 9.09 41 1.39 50.09-17.19 46.59-92.12 141.23-150.01 244.46-149.51 146.91-2.29 267.96 114.75 270.62 261.65 0.05 12.51-0.83 25-2.62 37.38-3.12 20.4 10.9 39.48 31.31 42.59 0.03 0.01 0.06 0.01 0.09 0.02h6.35c18.76 0.18 34.75-13.57 37.38-32.15l-1.12 0.01z m109.15 51.58c2.4-9.26 3.16-18.88 2.24-28.41-1.62-20.19-19.29-35.24-39.48-33.62-20.19 1.62-35.24 19.29-33.62 39.48 0.05 0.67 0.12 1.32 0.21 1.99-7.48 28.03-152.51 61.3-399.2 0-186.89-47.1-314.73-121.85-343.88-171.57a24.337 24.337 0 0 1-4.86-15.32c4.68-20.1-7.82-40.2-27.92-44.89-19.14-4.45-38.46 6.66-44.22 25.45a92.688 92.688 0 0 0 12.34 72.51c45.23 76.63 198.11 157.74 389.86 205.96a1167.95 1167.95 0 0 0 273.99 37.38c110.64 2.62 197.73-24.29 214.93-88.96h-0.39z" fill="#ffffff" p-id="1215"></path></svg>