<?xml version="1.0" standalone="no"?><!DOCTYPE svg PUBLIC "-//W3C//DTD SVG 1.1//EN" "http://www.w3.org/Graphics/SVG/1.1/DTD/svg11.dtd"><svg t="1588908341751" class="icon" viewBox="0 0 1024 1024" version="1.1" xmlns="http://www.w3.org/2000/svg" p-id="793" xmlns:xlink="http://www.w3.org/1999/xlink" width="200" height="200"><defs><style type="text/css"></style></defs><path d="M583.03 959.81a63.994 63.994 0 0 1-45.51-18.89L492 895.41c-18.02-15.42-20.13-42.52-4.71-60.53 15.41-18.02 42.52-20.13 60.54-4.72a42.84 42.84 0 0 1 4.71 4.72l30.48 30.48 15.03-15.03a21.41 21.41 0 0 0 6.01-12.02l25.33-176.9a85.835 85.835 0 0 1 24.47-48.51l106.91-106.91a383.823 383.823 0 0 0 113.35-273.07v-82.86h-82.86c-102.51-0.2-200.83 40.62-273.07 113.34l-106.9 106.91a85.907 85.907 0 0 1-48.52 24.48l-177.32 25.34a21.41 21.41 0 0 0-12.02 6.01l-15.03 15.03 30.48 30.48c18.02 15.42 20.13 42.52 4.71 60.53s-42.52 20.13-60.54 4.72a42.84 42.84 0 0 1-4.71-4.72l-45.51-45.51c-25.12-25.15-25.12-65.88 0-91.03l30.48-30.48c16.38-16.4 37.6-27.1 60.54-30.48l177.32-25.34 106.91-106.91A469.306 469.306 0 0 1 792.13 64.17h124.94c23.71 0 42.94 19.22 42.94 42.94v125.8a469.332 469.332 0 0 1-138.25 334.04l-106.92 106.9-25.33 177.32a107.775 107.775 0 0 1-30.48 60.53l-30.48 30.48a64.02 64.02 0 0 1-45.52 17.63zM370.5 834.88l60.54-60.53c15.41-18.02 13.3-45.13-4.72-60.53-16.07-13.74-39.75-13.74-55.82 0l-60.54 60.53c-18.02 15.42-20.13 42.52-4.71 60.53 15.41 18.02 42.52 20.13 60.54 4.72 1.68-1.45 3.26-3.04 4.71-4.72z m-182.05-60.54l121.51-121.51c15.41-18.02 13.3-45.13-4.72-60.53-16.07-13.74-39.75-13.74-55.82 0l-121.5 121.51c-18.02 15.42-20.13 42.52-4.71 60.53s42.52 20.13 60.54 4.72c1.68-1.45 3.26-3.03 4.7-4.72z m546.57-303.55c50.23-50.29 50.23-131.75 0-182.04-15.41-18.02-42.52-20.13-60.53-4.72-18.02 15.42-20.13 42.52-4.72 60.53 1.45 1.7 3.02 3.27 4.71 4.72 16.82 16.72 16.9 43.9 0.18 60.72-16.72 16.81-43.9 16.9-60.72 0.18s-16.9-43.9-0.18-60.72c0.06-0.05 0.12-0.12 0.18-0.18 15.41-18.02 13.3-45.13-4.72-60.53-16.07-13.74-39.75-13.74-55.82 0-52.05 48.49-54.93 130-6.44 182.04 48.49 52.04 130 54.93 182.04 6.44 2.22-2.07 4.37-4.21 6.44-6.44h-0.42z" fill="#333333" p-id="794"></path></svg>